<svg xmlns="http://www.w3.org/2000/svg" width="1700" height="545" viewBox="0 0 1700 545">
  <defs>
    <marker id="arr" markerWidth="12" markerHeight="9" refX="10" refY="4.5" orient="auto">
      <path d="M0,0 L12,4.5 L0,9Z" fill="#c0c0c0"/>
    </marker>
    <style>
      text { font-family: Arial, Helvetica, sans-serif; }
      .lbl  { font-weight: 900; font-size: 22px; fill: #111111; }
      .sub  { font-size: 13px; fill: #888888; }
      .albl { font-size: 12.5px; fill: #909090; }
      .arr  { stroke: #c8c8c8; stroke-width: 2.5; fill: none; marker-end: url(#arr); }
    </style>
  </defs>

  <!-- White background -->
  <rect width="1700" height="545" fill="#ffffff"/>


  <!-- ═══════════════════════════════════════════════════
       1.  TRIGGER  (person silhouette + dark badge)
           person center-x = 116
  ═══════════════════════════════════════════════════ -->

  <!-- dark badge "Trigger" -->
  <rect x="56" y="158" width="118" height="36" rx="18" fill="#1a1a1a"/>
  <text font-weight="bold" font-size="16" fill="#ffffff" text-anchor="middle" x="115" y="182">Trigger</text>

  <!-- person head (solid) -->
  <circle cx="115" cy="218" r="24" fill="#1a1a1a"/>

  <!-- person body (solid) -->
  <path d="M65,264 Q65,244 115,244 Q165,244 165,264 L165,272 Q165,275 115,275 Q65,275 65,272 Z" fill="#1a1a1a"/>

  <!-- subtitles -->
  <text class="sub" text-anchor="middle" x="115" y="298">Telegram</text>
  <text class="sub" text-anchor="middle" x="115" y="316">n8n Scheduler</text>


  <!-- ─── arrow: Trigger → Orchestrator ─── -->
  <line class="arr" x1="178" y1="246" x2="304" y2="246"/>
  <text class="albl" text-anchor="middle" x="241" y="237">Câu hỏi / Tác vụ</text>

  <!-- ─── arrow: Orchestrator → Trigger ─── -->
  <line class="arr" x1="304" y1="272" x2="178" y2="272"/>
  <text class="albl" text-anchor="middle" x="241" y="291">Phản hồi / Báo cáo</text>


  <!-- ═══════════════════════════════════════════════════
       2.  ORCHESTRATOR  (browser/interface icon, no border)
           center-x = 385
  ═══════════════════════════════════════════════════ -->

  <!-- monitor outline (reference style: outlined, not solid) -->
  <rect x="328" y="222" width="72" height="54" rx="6" fill="none" stroke="#1a1a1a" stroke-width="3"/>
  <line x1="328" y1="237" x2="400" y2="237" stroke="#1a1a1a" stroke-width="2.5"/>
  <text font-family="monospace" font-weight="bold" font-size="15" fill="#1a1a1a" text-anchor="middle" x="364" y="258">&lt;/&gt;</text>
  <line x1="356" y1="276" x2="372" y2="276" stroke="#1a1a1a" stroke-width="2.5"/>
  <line x1="364" y1="276" x2="364" y2="284" stroke="#1a1a1a" stroke-width="2.5"/>

  <!-- label -->
  <text class="lbl" text-anchor="middle" x="385" y="310">Orchestrator</text>
  <text class="sub" text-anchor="middle" x="385" y="330">intent classifier</text>


  <!-- ─── arrow: Orchestrator → Supervisor ─── -->
  <line class="arr" x1="450" y1="248" x2="534" y2="248"/>
  <text class="albl" text-anchor="middle" x="492" y="239">Request</text>

  <!-- ─── arrow: Supervisor → Orchestrator ─── -->
  <line class="arr" x1="534" y1="274" x2="450" y2="274"/>
  <text class="albl" text-anchor="middle" x="492" y="293">Progress</text>


  <!-- ═══════════════════════════════════════════════════
       3.  QUALITY GATE  (bold label + checkmark, no border)
           top-center above Supervisor
  ═══════════════════════════════════════════════════ -->

  <text class="lbl" text-anchor="middle" x="620" y="56">Quality</text>
  <text class="lbl" text-anchor="middle" x="620" y="84">Gate</text>

  <!-- large solid checkmark -->
  <path d="M660,54 L678,78 L722,32" fill="none" stroke="#1a1a1a" stroke-width="7" stroke-linecap="round" stroke-linejoin="round"/>

  <text class="sub" text-anchor="middle" x="640" y="106">PASS · REVISE · BLOCK</text>


  <!-- ─── arrow: Supervisor → Quality Gate (up, left lane) ─── -->
  <line class="arr" x1="624" y1="178" x2="624" y2="132"/>
  <text class="albl" text-anchor="end" x="619" y="158">Propose output</text>

  <!-- ─── arrow: Quality Gate → Supervisor (down, right lane) ─── -->
  <line class="arr" x1="680" y1="132" x2="680" y2="178"/>
  <text class="albl" text-anchor="start" x="685" y="158">Allow / Revise / Block</text>


  <!-- ═══════════════════════════════════════════════════
       4.  SUPERVISOR CORE  (YELLOW background — center node)
           rect x=536 y=178  w=232 h=188
  ═══════════════════════════════════════════════════ -->

  <rect x="536" y="178" width="232" height="188" rx="18"
        fill="#f8f800" stroke="#c0c000" stroke-width="4"/>

  <!-- circular arrows icon -->
  <circle cx="652" cy="238" r="32" fill="none" stroke="#1a1a1a" stroke-width="3.5"/>
  <polygon points="652,202 644,216 660,216" fill="#1a1a1a"/>
  <polygon points="652,274 660,260 644,260" fill="#1a1a1a"/>

  <text class="lbl" font-size="24" text-anchor="middle" x="652" y="330">Supervisor</text>
  <text class="lbl" font-size="16" text-anchor="middle" x="652" y="352">Core</text>


  <!-- ─── arrow: Supervisor → Specialist Agents ─── -->
  <line class="arr" x1="770" y1="250" x2="870" y2="250"/>
  <text class="albl" text-anchor="middle" x="820" y="241">Dispatch agents</text>

  <!-- ─── arrow: Specialist Agents → Supervisor ─── -->
  <line class="arr" x1="870" y1="276" x2="770" y2="276"/>
  <text class="albl" text-anchor="middle" x="820" y="295">Agent results</text>


  <!-- ═══════════════════════════════════════════════════
       5.  SPECIALIST AGENTS  (hammer icon + bold label, no border)
           center-x = 970
  ═══════════════════════════════════════════════════ -->

  <!-- solid hammer icon — raised so handle ends at y≈150, clear of text at y=178 -->
  <g transform="translate(910,84)">
    <!-- handle -->
    <rect x="22" y="18" width="16" height="48" rx="4" fill="#1a1a1a"/>
    <!-- head -->
    <rect x="6" y="6" width="48" height="24" rx="6" fill="#1a1a1a"/>
  </g>

  <text class="lbl" text-anchor="middle" x="970" y="200">Specialist</text>
  <text class="lbl" text-anchor="middle" x="970" y="228">Agents</text>
  <text class="sub" text-anchor="middle" x="970" y="258">competitor · pricing</text>
  <text class="sub" text-anchor="middle" x="970" y="278">regulatory · market trend</text>
  <text class="sub" text-anchor="middle" x="970" y="298">positioning · battlecard</text>
  <text class="sub" text-anchor="middle" x="970" y="318">memory curator · critic</text>


  <!-- ─── arrow: Specialists → LLM Router ─── -->
  <line class="arr" x1="1062" y1="252" x2="1168" y2="258"/>
  <text class="albl" text-anchor="middle" x="1115" y="244">LLM call</text>

  <!-- ─── arrow: LLM Router → Specialists ─── -->
  <line class="arr" x1="1168" y1="282" x2="1062" y2="278"/>
  <text class="albl" text-anchor="middle" x="1115" y="300">Response</text>


  <!-- ═══════════════════════════════════════════════════
       6.  LLM ROUTER  (3D cube icon + bold label, no border)
           center-x = 1290
  ═══════════════════════════════════════════════════ -->

  <!-- isometric cube (solid, 3 faces) -->
  <g transform="translate(1184,218)">
    <!-- top face -->
    <path d="M30,0 L60,16 L30,32 L0,16 Z" fill="#444444"/>
    <!-- left face -->
    <path d="M0,16 L30,32 L30,56 L0,40 Z" fill="#111111"/>
    <!-- right face -->
    <path d="M30,32 L60,16 L60,40 L30,56 Z" fill="#777777"/>
  </g>

  <text class="lbl" text-anchor="middle" x="1290" y="298">LLM Router</text>
  <text class="sub" text-anchor="middle" x="1290" y="320">Gemma · Qwen · Claude</text>
  <text class="sub" text-anchor="middle" x="1290" y="340">JSON guard · budget · retry</text>


  <!-- ═══════════════════════════════════════════════════
       7.  MEMORY & STORAGE  (solid database icon + bold label)
           bottom-center below Supervisor
  ═══════════════════════════════════════════════════ -->

  <!-- ─── arrow: Supervisor → Memory (down, left lane) ─── -->
  <line class="arr" x1="624" y1="368" x2="624" y2="396"/>
  <text class="albl" text-anchor="end" x="619" y="388">Persist</text>

  <!-- ─── arrow: Memory → Supervisor (up, right lane) ─── -->
  <line class="arr" x1="680" y1="396" x2="680" y2="368"/>
  <text class="albl" text-anchor="start" x="685" y="388">Load memory</text>

  <!-- solid database icon — centered at x=652 -->
  <g transform="translate(622,400)">
    <!-- body -->
    <rect x="0" y="10" width="60" height="38" fill="#1a1a1a"/>
    <!-- top disc -->
    <ellipse cx="30" cy="10" rx="30" ry="10" fill="#1a1a1a"/>
    <!-- middle divider -->
    <line x1="0" y1="29" x2="60" y2="29" stroke="#ffffff" stroke-width="2"/>
    <!-- bottom disc -->
    <ellipse cx="30" cy="48" rx="30" ry="10" fill="#1a1a1a"/>
  </g>

  <text class="lbl" text-anchor="middle" x="652" y="478">Memory &amp;</text>
  <text class="lbl" text-anchor="middle" x="652" y="502">Storage</text>
  <text class="sub" text-anchor="middle" x="652" y="522">workspace · artifacts · GitHub</text>

</svg>
